<svg
   xmlns:dc="http://purl.org/dc/elements/1.1/"
   xmlns:cc="http://creativecommons.org/ns#"
   xmlns:rdf="http://www.w3.org/1999/02/22-rdf-syntax-ns#"
   xmlns:svg="http://www.w3.org/2000/svg"
   xmlns="http://www.w3.org/2000/svg"
   xmlns:xlink="http://www.w3.org/1999/xlink"
   xmlns:sodipodi="http://sodipodi.sourceforge.net/DTD/sodipodi-0.dtd"
   xmlns:inkscape="http://www.inkscape.org/namespaces/inkscape"
   width="950"
   height="744.09448"
   id="svg2"
   version="1.1"
   inkscape:version="0.91 r13725"
   sodipodi:docname="grolly2_cadiweb_schema.svg"
   style="margin-left:-200px;">
  <defs
     id="defs4">
    <linearGradient
       id="linearGradient4127">
      <stop
         style="stop-color:#00ffcc;stop-opacity:1;"
         offset="0"
         id="stop4129" />
      <stop
         style="stop-color:#00ffcc;stop-opacity:0;"
         offset="1"
         id="stop4131" />
    </linearGradient>
    <inkscape:perspective
       sodipodi:type="inkscape:persp3d"
       inkscape:vp_x="-13.479251 : 207.70134 : 1"
       inkscape:vp_y="0 : 1526.5795 : 0"
       inkscape:vp_z="1385.611 : 207.70134 : 1"
       inkscape:persp3d-origin="686.06588 : 18.381438 : 1"
       id="perspective2995" />
    <linearGradient
       inkscape:collect="always"
       xlink:href="#linearGradient4127"
       id="linearGradient4137"
       x1="-217.82143"
       y1="-429.05859"
       x2="-158.60715"
       y2="-431.91571"
       gradientUnits="userSpaceOnUse" />
  </defs>
  <sodipodi:namedview
     id="base"
     pagecolor="#ffffff"
     bordercolor="#666666"
     borderopacity="1.0"
     inkscape:pageopacity="0.0"
     inkscape:pageshadow="2"
     inkscape:zoom="1.98"
     inkscape:cx="711.53939"
     inkscape:cy="373.49349"
     inkscape:document-units="px"
     inkscape:current-layer="layer1"
     showgrid="false"
     inkscape:object-paths="false"
     inkscape:snap-nodes="true"
     showguides="true"
     inkscape:guide-bbox="true"
     inkscape:window-width="1280"
     inkscape:window-height="999"
     inkscape:window-x="1362"
     inkscape:window-y="-4"
     inkscape:window-maximized="1">
    <sodipodi:guide
       position="874.28571,297.14286"
       orientation="1,0"
       id="guide4638" />
  </sodipodi:namedview>
  <metadata
     id="metadata7">
    <rdf:RDF>
      <cc:Work
         rdf:about="">
        <dc:format>image/svg+xml</dc:format>
        <dc:type
           rdf:resource="http://purl.org/dc/dcmitype/StillImage" />
        <dc:title></dc:title>
      </cc:Work>
    </rdf:RDF>
  </metadata>
  <g
     inkscape:label="Layer 1"
     inkscape:groupmode="layer"
     id="layer1"
     transform="translate(450,-100)">
    <rect
       style="fill:#ffffff;stroke:#2b0000;stroke-width:2.8900001"
       id="rect3025"
       width="170.78143"
       height="278.79703"
       x="-121.50121"
       y="164.93553" />
    <rect
       style="fill:#ffffff;stroke:#2b0000;stroke-width:2.8900001"
       id="rect3027"
       width="160.56375"
       height="243.76497"
       x="105.9947"
       y="199.79051" />
    <path
       style="fill:none;stroke:#000000;stroke-width:2.78540301px;stroke-linecap:butt;stroke-linejoin:miter;stroke-opacity:1"
       d="m -47.207938,503.10101 0,17.53453 c 0,0 4.063494,32.14659 40.6348806,32.14659 l 254.7936774,0"
       id="path3049"
       inkscape:connector-curvature="0"
       sodipodi:nodetypes="ccsc" />
    <path
       style="fill:none;stroke:#000000;stroke-width:2.8900001px;stroke-linecap:butt;stroke-linejoin:miter;stroke-opacity:1"
       d="m -26.265727,501.49284 0,10.56855 c 0,0 -2.554422,14.43536 26.274081,14.43536 l 64.955591,0"
       id="path3065"
       inkscape:connector-curvature="0"
       sodipodi:nodetypes="ccsc" />
    <path
       style="fill:none;stroke:#000000;stroke-width:2.8900001px;stroke-linecap:butt;stroke-linejoin:miter;stroke-opacity:1"
       d="m 42.967507,526.49675 107.243963,0 c 0,0 26.63899,4.55444 26.63899,-24.27406"
       id="path3073"
       inkscape:connector-curvature="0"
       sodipodi:nodetypes="ccc" />
    <path
       style="fill:none;stroke:#000000;stroke-width:2.8900001px;stroke-linecap:butt;stroke-linejoin:miter;stroke-opacity:1"
       d="m 249.54074,525.92532 -28.38681,0 c 0,0 -24.13393,1.52414 -24.63898,-22.75891"
       id="path3073-1"
       inkscape:connector-curvature="0"
       sodipodi:nodetypes="ccc" />

    <circle
       style="stroke:#2b0000;stroke-width:2.8900001"
    fill = "none" 
       id="psi_pump"
       inkscape:transform-center-x="-12.407197"
       cx="274.66299"
       cy="540.29095"
       r="29.193409" />
<!---

<path
       sodipodi:type="arc"
    fill = "none"
       style="stroke:#2b0000"
       id="psi_pump"
       sodipodi:cx="244.66299"
       sodipodi:cy="540.29095"
       sodipodi:rx="10.101525"
       sodipodi:ry="10.101525"
       d="m 142.43151,143.05371 a 10.101525,10.101525 0 1 1 -20.20305,0 10.101525,10.101525 0 1 1 20.20305,0 z"
       transform="matrix(2.89,0,0,2.89,-57.352203,120.93211)"
       inkscape:transform-center-x="-12.407197" />
--->


    <path
       style="fill:none;stroke:#000000;stroke-width:3.35290217px;stroke-linecap:butt;stroke-linejoin:miter;stroke-opacity:1"
       d="m 340.40898,442.93579 0,120.78544"
       id="path3181"
       inkscape:connector-curvature="0"
       sodipodi:nodetypes="cc" />
    <path
       style="fill:none;stroke:#000000;stroke-width:2.8900001px;stroke-linecap:butt;stroke-linejoin:miter;stroke-opacity:1"
       d="m 313.46277,386.57396 0,-202.16434 c 0,0 1.09477,-21.16522 -19.34063,-21.16522 -20.43539,0 -60.21141,0 -60.21141,0"
       id="path3183"
       inkscape:connector-curvature="0" />
    <path
       style="fill:none;stroke:#000000;stroke-width:2.8900001px;stroke-linecap:butt;stroke-linejoin:miter;stroke-opacity:1"
       d="m 337.18243,386.7805 0,-221.86992 c 0,0 -4.37903,-22.98981 -23.71966,-22.98981 -19.34063,0 -79.18712,-0.72983 -79.18712,-0.72983 l -15.69146,0 c 0,0 -18.24586,1.09475 -18.24586,16.05636 0,14.96163 0,14.96163 0,14.96163 l 26.63896,0.36493 c 0,0 -1.82456,-8.39311 7.29836,-8.75803"
       id="path3185"
       inkscape:connector-curvature="0" />

    <path
    fill = "#ababab;"
       style="stroke:#000000;stroke-width:2.8900001px;stroke-linecap:butt;stroke-linejoin:miter;stroke-opacity:1"
       d="m 313.46277,554.53004 0,245.04922"
       id="tl_xxx"
       inkscape:connector-curvature="0"
       sodipodi:nodetypes="cc" />
    <path
       style="fill:none;stroke:#000000;stroke-width:2.8900001px;stroke-linecap:butt;stroke-linejoin:miter;stroke-opacity:1"
       d="m 312.81607,800.96218 c 0,0 4.5337,28.45 14.45,28.45 l 33.54464,0"
       id="path3243"
       inkscape:connector-curvature="0"
       sodipodi:nodetypes="csc" />
    <path
       style="fill:none;stroke:#000000;stroke-width:2.8900001px;stroke-linecap:butt;stroke-linejoin:miter;stroke-opacity:1"
       d="m 339.18243,565.4979 13.15152,0.002 9.48686,0"
       id="path3245"
       inkscape:connector-curvature="0"
       sodipodi:nodetypes="ccc" />
    <path
       style="fill:none;stroke:#000000;stroke-width:2.8900001px;stroke-linecap:butt;stroke-linejoin:miter;stroke-opacity:1"
       d="m 361.31576,631.63027 -23.62828,0 0,28.05893 23.62828,0"
       id="path3247"
       inkscape:connector-curvature="0"
       sodipodi:nodetypes="cccc" />
    <path
       style="fill:none;stroke:#000000;stroke-width:2.8900001px;stroke-linecap:butt;stroke-linejoin:miter;stroke-opacity:1"
       d="m 361.82081,680.85915 -23.62828,0 0,31.09107 23.62828,0"
       id="path3249"
       inkscape:connector-curvature="0"
       sodipodi:nodetypes="cccc" />
    <path
       sodipodi:type="arc"
       fil="none"
       style="stroke:#2b0000;stroke-width:1.78571427"
       id="cdp4"
       sodipodi:cx="337.14285"
       sodipodi:cy="-168.40552"
       sodipodi:rx="12.5"
       sodipodi:ry="12.5"
       d="m 349.64285,-168.40552 a 12.5,12.5 0 0 1 -12.5,12.5 12.5,12.5 0 0 1 -12.5,-12.5 12.5,12.5 0 0 1 12.5,-12.5 12.5,12.5 0 0 1 12.5,12.5 z"
       transform="matrix(1.6184,0,0,1.6184,-178.34868,561.55834)" />
    <path
       style="fill:none;stroke:#000000;stroke-width:2.8900001px;stroke-linecap:butt;stroke-linejoin:miter;stroke-opacity:1"
       d="m 361.592,272.44811 c 4.3232,-1.55115 10.83903,14.57915 10.83903,14.57915 0,0 5.2387,16.74226 0.92231,18.43376 -4.81066,1.88511 -11.12971,-14.49298 -11.12971,-14.49298 0,0 -4.90759,-17.04464 -0.63163,-18.51993 z"
       id="path3267"
       inkscape:connector-curvature="0"
       sodipodi:nodetypes="ccscc" />
    <path
       style="fill:none;stroke:#000000;stroke-width:2.8900001px;stroke-linecap:butt;stroke-linejoin:miter;stroke-opacity:1"
       d="m 383.62267,283.20064 c 1.55115,4.32324 -14.57915,10.83903 -14.57915,10.83903 0,0 -16.74226,5.23871 -18.43376,0.92229 -1.88511,-4.81061 14.49297,-11.12968 14.49297,-11.12968 0,0 17.04463,-4.90763 18.51994,-0.63164 z"
       id="path3267-5"
       inkscape:connector-curvature="0"
       sodipodi:nodetypes="ccscc" />
    <path
       sodipodi:type="arc"
       fill="none"
       style="stroke:#2b0000;stroke-width:1.78571427"
       id="cdp3"
       sodipodi:cx="337.14285"
       sodipodi:cy="-168.40552"
       sodipodi:rx="12.5"
       sodipodi:ry="12.5"
       d="m 349.64285,-168.40552 a 12.5,12.5 0 0 1 -12.5,12.5 12.5,12.5 0 0 1 -12.5,-12.5 12.5,12.5 0 0 1 12.5,-12.5 12.5,12.5 0 0 1 12.5,12.5 z"
       transform="matrix(1.6184,0,0,1.6184,-178.11234,492.03247)" />
    <path
       style="fill:none;stroke:#000000;stroke-width:2.8900001px;stroke-linecap:butt;stroke-linejoin:miter;stroke-opacity:1"
       d="m 361.82835,202.92226 c 4.3232,-1.55115 10.83903,14.57914 10.83903,14.57914 0,0 5.2387,16.74227 0.9223,18.43375 -4.81066,1.88513 -11.1297,-14.49297 -11.1297,-14.49297 0,0 -4.90759,-17.04465 -0.63163,-18.51992 z"
       id="path3267-1"
       inkscape:connector-curvature="0"
       sodipodi:nodetypes="ccscc" />
    <path
       style="fill:none;stroke:#000000;stroke-width:2.8900001px;stroke-linecap:butt;stroke-linejoin:miter;stroke-opacity:1"
       d="m 383.859,213.67479 c 1.55117,4.32324 -14.57914,10.83903 -14.57914,10.83903 0,0 -16.74227,5.2387 -18.43375,0.92228 -1.88511,-4.8106 14.49298,-11.12967 14.49298,-11.12967 0,0 17.0446,-4.90763 18.51991,-0.63164 z"
       id="path3267-5-7"
       inkscape:connector-curvature="0"
       sodipodi:nodetypes="ccscc" />
    <path
       sodipodi:type="arc"
       fill="none"
       style="stroke:#2b0000;stroke-width:1.78571427"
       id="cdp2"
       sodipodi:cx="337.14285"
       sodipodi:cy="-168.40552"
       sodipodi:rx="12.5"
       sodipodi:ry="12.5"
       d="m 349.64285,-168.40552 a 12.5,12.5 0 0 1 -12.5,12.5 12.5,12.5 0 0 1 -12.5,-12.5 12.5,12.5 0 0 1 12.5,-12.5 12.5,12.5 0 0 1 12.5,12.5 z"
       transform="matrix(1.6184,0,0,1.6184,-178.11234,634.84182)" />
    <path
       style="fill:none;stroke:#000000;stroke-width:2.8900001px;stroke-linecap:butt;stroke-linejoin:miter;stroke-opacity:1"
       d="m 361.82831,345.73161 c 4.32321,-1.55115 10.83903,14.57914 10.83903,14.57914 0,0 5.23871,16.74227 0.92232,18.43375 -4.81068,1.88511 -11.12971,-14.49297 -11.12971,-14.49297 0,0 -4.9076,-17.04465 -0.63164,-18.51992 z"
       id="path3267-1-1"
       inkscape:connector-curvature="0"
       sodipodi:nodetypes="ccscc" />
    <path
       style="fill:none;stroke:#000000;stroke-width:2.8900001px;stroke-linecap:butt;stroke-linejoin:miter;stroke-opacity:1"
       d="m 383.85899,356.48414 c 1.55115,4.32324 -14.57917,10.83903 -14.57917,10.83903 0,0 -16.74224,5.2387 -18.43374,0.92228 -1.88512,-4.8106 14.49297,-11.12967 14.49297,-11.12967 0,0 17.04461,-4.90763 18.51994,-0.63164 z"
       id="path3267-5-7-5"
       inkscape:connector-curvature="0"
       sodipodi:nodetypes="ccscc" />
    <path
       onClick="toggleValve(0);"
       fill = "#ababab;"
       style="stroke:#000000;stroke-width:1px;stroke-linecap:butt;stroke-linejoin:miter;stroke-opacity:1"
       d="m -126.87678,108.12915 87.216069,43.86607 0,-43.86607 -87.216069,43.86607 z"
       id="valve_0"
       inkscape:connector-curvature="0" />
    <path
       style="stroke:#000000;stroke-width:1px;stroke-linecap:butt;stroke-linejoin:miter;stroke-opacity:1"
    fill = "#ababab;"
       d="m 362.46807,552.63975 60.49054,44.41823 0,-44.41823 -60.49054,44.41823 z"
       id="valve_1"
       inkscape:connector-curvature="0" />
    <path
       style="stroke:#000000;stroke-width:1px;stroke-linecap:butt;stroke-linejoin:miter;stroke-opacity:1"
fill = "#ababab;"
       d="m 362.67329,601.14697 60.40446,44.42721 0,-44.42721 -60.40446,44.42721 z"
       id="valve_2"
       inkscape:connector-curvature="0" />
    <path
    fill = "#ababab;"
       style="stroke:#000000;stroke-width:1px;stroke-linecap:butt;stroke-linejoin:miter;stroke-opacity:1"
       d="m 362.68289,650.01252 60.21211,44.44219 0,-44.44219 -60.21211,44.44219 z"
       id="valve_3"
       inkscape:connector-curvature="0" />
    <path
    fill = "#ababab;"
       style="stroke:#000000;stroke-width:1px;stroke-linecap:butt;stroke-linejoin:miter;stroke-opacity:1"
       d="m 363.34419,700.44418 60.20916,44.44347 0,-44.44347 -60.20916,44.44347 z"
       id="valve_4"
       inkscape:connector-curvature="0" />
    <path
    fill = "#ababab;"
       style="stroke:#000000;stroke-width:1px;stroke-linecap:butt;stroke-linejoin:miter;stroke-opacity:1"
       d="m 363.34178,750.43743 59.70893,44.45697 0,-44.45697 -59.70893,44.45697 z"
       id="valve_5"
       inkscape:connector-curvature="0" />
    <path
    fill = "#ababab;"
       style="stroke:#000000;stroke-width:1px;stroke-linecap:butt;stroke-linejoin:miter;stroke-opacity:1"
       d="m 363.34219,800.72297 59.70811,44.45731 0,-44.45731 -59.70811,44.45731 z"
       id="valve_6"
       inkscape:connector-curvature="0" />
    <path
    fill = "#505050;"
       style="stroke:#000000;stroke-width:1px;stroke-linecap:butt;stroke-linejoin:miter;stroke-opacity:1"
       d="m -14.925188,445.76536 -44.55315,56.20914 44.55315,0 -44.55315,-56.20914 z"
       id="valve_7"        
       inkscape:connector-curvature="0" />
   <path
    fill = "none"
       style="stroke:#000000;stroke-width:1px;stroke-linecap:butt;stroke-linejoin:miter;stroke-opacity:1"
       d="m 208.29633,445.66506 -44.52654,56.26335 44.52654,0 -44.52654,-56.26335 z"
       id="valve_8"
       inkscape:connector-curvature="0" />
    <path
    fill = "none"
       style="stroke:#000000;stroke-width:1px;stroke-linecap:butt;stroke-linejoin:miter;stroke-opacity:1"
       d="m 349.41943,385.98992 -44.55315,56.20914 44.55315,0 -44.55315,-56.20914 z"
       id="valve_9"
       inkscape:connector-curvature="0" />
    <path
       style="fill:none;stroke:#000000;stroke-width:2.8900001px;stroke-linecap:butt;stroke-linejoin:miter;stroke-opacity:1"
       d="m -41.237143,118 49.5710857,0 c 0,0 25.8035673,-4.12856 25.8035673,20.64286 0,24.77143 0,0 0,0 l 0,0 0,0 0,0"
       id="path4206"
       inkscape:connector-curvature="0" />
    <path
       style="fill:none;stroke:#000000;stroke-width:2.8900001px;stroke-linecap:butt;stroke-linejoin:miter;stroke-opacity:1"
       d="m -41.237143,141.5 48.5389511,0 0,8.25716 26.8357019,0"
       id="path4214"
       inkscape:connector-curvature="0" />
    <rect
       style="fill:#3771cb;stroke:#3771cb"
       id="tank3_water"
       width="166"
       height="0"
       x="-119"
       y="167" />
    <rect
       style="fill:#3771cb;stroke:#3771cb"
       id="tank4_water"
       width="157"
       height="0"
       x="108"
       y="162"
       inkscape:label="#rect4218" />

    <path
       style="fill:none;stroke:#000000;stroke-width:2.8900001px;stroke-linecap:butt;stroke-linejoin:miter;stroke-opacity:1"
       d="m 362.53664,733.59945 -23.62828,0 0,31.09107 23.62828,0"
       id="path3249-5"
       inkscape:connector-curvature="0"
       sodipodi:nodetypes="cccc" />
    <path
       style="fill:none;stroke:#000000;stroke-width:2.8900001px;stroke-linecap:butt;stroke-linejoin:miter;stroke-opacity:1"
       d="m 362.03159,782.0843 -23.62828,0 0,31.09107 23.62828,0"
       id="path3249-3"
       inkscape:connector-curvature="0"
       sodipodi:nodetypes="cccc" />
    <path
       style="fill:none;stroke:#000000;stroke-width:2.8900001px;stroke-linecap:butt;stroke-linejoin:miter;stroke-opacity:1"
       d="m 361.02149,584.61047 -23.62828,0 0,28.05893 23.62828,0"
       id="path3247-7"
       inkscape:connector-curvature="0"
       sodipodi:nodetypes="cccc" />
    <path
       style="fill:none;stroke:#000000;stroke-width:3.31575823px;stroke-linecap:butt;stroke-linejoin:miter;stroke-opacity:1"
       d="m 313.65656,443.29772 0,83.25009"
       id="path3181-3"
       inkscape:connector-curvature="0"
       sodipodi:nodetypes="cc" />
    <path
       style="fill:none;fill-rule:evenodd;stroke:#000000;stroke-width:1px;stroke-linecap:butt;stroke-linejoin:miter;stroke-opacity:1"
       d="m 313.63636,525.91266 -13.63636,0"
       id="path4691"
       inkscape:connector-curvature="0" />
    <path
       style="fill:none;fill-rule:evenodd;stroke:#000000;stroke-width:1px;stroke-linecap:butt;stroke-linejoin:miter;stroke-opacity:1"
       d="m 313.63636,555.20559 -13.13131,-0.50505"
       id="path4693"
       inkscape:connector-curvature="0" />
    <text
       xml:space="preserve"
       style="font-style:normal;font-weight:normal;font-size:40px;line-height:125%;font-family:sans-serif;letter-spacing:0px;word-spacing:0px;fill:#000000;fill-opacity:1;stroke:none;stroke-width:1px;stroke-linecap:butt;stroke-linejoin:miter;stroke-opacity:1"
       x="263.71722"
       y="554.11469"
       id="text4695"
       sodipodi:linespacing="125%"><tspan
         sodipodi:role="line"
         x="263.71722"
         y="554.11469"
         id="tspan4699">P</tspan></text>
  </g>
</svg>

